# xmcd
#
# Track frame offsets: 
#        150
#        16873
#        48382
#        71953
#        93126
#        112220
#        150727
#        180418
#        211755
#
# Disc length: 3329 seconds
#
# Revision: 0
# Processed by: cddbd v1.5.2PL0 Copyright (c) Steve Scherf et al.
# Submitted via: ExactAudioCopy v1.0b3
#
DISCID=710cff09
DTITLE=Dire Straits - Brothers In Arms
DYEAR=1985
DGENRE=Rock
TTITLE0=So Far Away
TTITLE1=Money For Nothing
TTITLE2=Walk Of Life
TTITLE3=Your Latest Trick
TTITLE4=Why Worry
TTITLE5=Ride Across The River
TTITLE6=The Man's Too Strong
TTITLE7=One World
TTITLE8=Brothers In Arms
EXTD=
EXTT0=
EXTT1=
EXTT2=
EXTT3=
EXTT4=
EXTT5=
EXTT6=
EXTT7=
EXTT8=
PLAYORDER=
